HIERARCHY
ROOT joint_Root
{
	OFFSET 0.0 0.0 0.0
	CHANNELS 6 Xposition Yposition Zposition Zrotation Xrotation Yrotation 
	JOINT Hips
	{
		OFFSET -17.1583 93.1646 452.98
		CHANNELS 6 Xposition Yposition Zposition Zrotation Xrotation Yrotation 
		JOINT Spine
		{
			OFFSET 15.7357 0.0 0.0
			CHANNELS 6 Xposition Yposition Zposition Zrotation Xrotation Yrotation 
			JOINT Chest
			{
				OFFSET 8.98455 -0.406207 0.0
				CHANNELS 6 Xposition Yposition Zposition Zrotation Xrotation Yrotation 
				JOINT Neck
				{
					OFFSET 16.3773 0.0 0.0
					CHANNELS 6 Xposition Yposition Zposition Zrotation Xrotation Yrotation 
					JOINT Head
					{
						OFFSET 6.45672 0.0 0.0
						CHANNELS 6 Xposition Yposition Zposition Zrotation Xrotation Yrotation 
						End Site
						{
							OFFSET 0.0 0.0 0.0
						}
					}
				}
				JOINT Shoulder_L
				{
					OFFSET 12.9942 -0.242716 4.98039
					CHANNELS 6 Xposition Yposition Zposition Zrotation Xrotation Yrotation 
					JOINT UpperArm_L
					{
						OFFSET 5.34809 0.0 0.0
						CHANNELS 6 Xposition Yposition Zposition Zrotation Xrotation Yrotation 
						JOINT LowerArm_L
						{
							OFFSET 24.3286 1.87007e-05 0.0
							CHANNELS 6 Xposition Yposition Zposition Zrotation Xrotation Yrotation 
							JOINT Hand_L
							{
								OFFSET 22.2916 0.0 0.0
								CHANNELS 6 Xposition Yposition Zposition Zrotation Xrotation Yrotation 
								End Site
								{
									OFFSET 0.0 0.0 0.0
								}
							}
						}
					}
				}
				JOINT Shoulder_R
				{
					OFFSET 12.9945 -0.242716 -4.98039
					CHANNELS 6 Xposition Yposition Zposition Zrotation Xrotation Yrotation 
					JOINT UpperArm_R
					{
						OFFSET -5.34813 0.0 0.0
						CHANNELS 6 Xposition Yposition Zposition Zrotation Xrotation Yrotation 
						JOINT LowerArm_R
						{
							OFFSET -24.3289 0.000322201 0.0
							CHANNELS 6 Xposition Yposition Zposition Zrotation Xrotation Yrotation 
							JOINT Hand_R
							{
								OFFSET -22.2915 -0.000108084 0.0
								CHANNELS 6 Xposition Yposition Zposition Zrotation Xrotation Yrotation 
								End Site
								{
									OFFSET 0.0 0.0 0.0
								}
							}
						}
					}
				}
			}
		}
		JOINT UpperLeg_L
		{
			OFFSET -2.19248 -6.46944 0.0
			CHANNELS 6 Xposition Yposition Zposition Zrotation Xrotation Yrotation 
			JOINT LowerLeg_L
			{
				OFFSET 39.0811 0.0 -1.23785e-05
				CHANNELS 6 Xposition Yposition Zposition Zrotation Xrotation Yrotation 
				JOINT Foot_L
				{
					OFFSET 40.9854 0.0 -1.26872e-05
					CHANNELS 6 Xposition Yposition Zposition Zrotation Xrotation Yrotation 
					JOINT Toes_L
					{
						OFFSET 11.7543 0.0 0.0
						CHANNELS 6 Xposition Yposition Zposition Zrotation Xrotation Yrotation 
						End Site
						{
							OFFSET 0.0 0.0 0.0
						}
					}
				}
			}
		}
		JOINT UpperLeg_R
		{
			OFFSET -2.19251 6.46944 0.0
			CHANNELS 6 Xposition Yposition Zposition Zrotation Xrotation Yrotation 
			JOINT LowerLeg_R
			{
				OFFSET -39.0811 -0.00228153 -0.0401928
				CHANNELS 6 Xposition Yposition Zposition Zrotation Xrotation Yrotation 
				JOINT Foot_R
				{
					OFFSET -40.9854 0.0 0.0
					CHANNELS 6 Xposition Yposition Zposition Zrotation Xrotation Yrotation 
					JOINT Toes_R
					{
						OFFSET -11.7543 0.0 0.0
						CHANNELS 6 Xposition Yposition Zposition Zrotation Xrotation Yrotation 
						End Site
						{
							OFFSET 0.0 0.0 0.0
						}
					}
				}
			}
		}
	}
}
MOTION
Frames:	6
Frame Time:	0.0333333
0.000000 0.000000 0.000000 0.000000 0.000000 -0.000000 -1.761320 93.511300 -0.534980 88.694700 7.905920 -2.183050 15.735700 0.000005 -0.000001 66.887000 87.262900 -70.564700 8.984550 -0.406207 -0.000000 -2.779330 -1.809960 -7.399820 16.377300 -0.000001 -0.000001 2.351810 0.713812 -11.184600 6.456720 -0.000001 -0.000000 0.897111 1.593180 -17.402700 12.994200 -0.242716 4.980390 -92.895800 8.157110 -70.378500 5.348090 -0.000007 -0.000001 -61.706900 -0.152080 3.194080 24.328600 0.000019 0.000005 11.665500 28.190000 -23.607800 22.291600 -0.000001 0.000005 2.648290 4.881530 9.744080 12.994500 -0.242716 -4.980390 94.203100 -8.341210 -63.133600 -5.348130 -0.000001 -0.000004 -74.349100 -69.056500 -69.300000 -24.328900 0.000322 -0.000009 -0.001527 -67.444000 -0.000710 -22.291500 -0.000108 -0.000004 57.353000 4.756330 12.131400 -2.192480 -6.469440 -0.000000 -172.648000 -2.362550 -3.542350 39.081100 -0.000007 -0.000012 -0.018624 0.099328 10.619500 40.985400 -0.000006 -0.000013 -4.624550 17.797900 -65.057900 11.754300 -0.000000 0.000003 -0.001043 0.183639 -9.127450 -2.192510 6.469440 -0.000001 177.590000 10.956500 -179.044000 -39.081100 -0.002282 -0.040193 0.005257 -0.015158 7.194650 -40.985400 0.000008 0.000006 -9.447690 3.073450 -64.989700 -11.754300 -0.000006 -0.000006 -0.009908 0.270614 -5.579250
0.000000 0.000000 0.000000 0.000000 0.000000 -0.000000 -1.719700 93.502700 -0.454233 88.773000 8.018640 -2.117490 15.735700 0.000005 -0.000001 66.392000 87.271300 -70.105700 8.984550 -0.406207 -0.000000 -2.814830 -1.842200 -7.473590 16.377300 -0.000001 -0.000001 2.329380 0.454938 -10.732900 6.456720 -0.000001 -0.000000 0.748678 1.509900 -17.101900 12.994200 -0.242716 4.980390 -92.861500 8.079490 -70.422600 5.348090 -0.000007 -0.000001 -61.465700 -0.689739 3.249390 24.328600 0.000019 0.000005 11.691200 27.887500 -23.864800 22.291600 -0.000001 0.000005 2.990190 4.873180 9.908590 12.994500 -0.242716 -4.980390 94.213600 -8.188460 -62.649000 -5.348130 -0.000001 -0.000004 -72.881500 -69.093200 -71.776300 -24.328900 0.000322 -0.000009 -0.001241 -64.492200 -0.000618 -22.291500 -0.000108 -0.000004 56.143800 4.811200 11.103000 -2.192480 -6.469440 -0.000000 -172.734000 -2.515550 -3.384860 39.081100 -0.000007 -0.000012 -0.018398 0.098942 10.533100 40.985400 -0.000006 -0.000013 -4.557030 18.027000 -64.977600 11.754300 -0.000000 0.000003 -0.000789 0.179984 -9.276000 -2.192510 6.469440 -0.000001 177.472000 10.995500 -178.934000 -39.081100 -0.002282 -0.040193 0.005092 -0.013695 7.277140 -40.985400 0.000008 0.000006 -9.423360 3.033190 -65.051400 -11.754300 -0.000006 -0.000006 -0.009462 0.267242 -5.717130
0.000000 0.000000 0.000000 0.000000 0.000000 -0.000000 -1.696780 93.491400 -0.392733 88.808300 8.060400 -2.032240 15.735700 0.000005 -0.000001 66.109000 87.286900 -69.873200 8.984550 -0.406207 -0.000000 -2.855000 -1.848220 -7.575550 16.377300 -0.000001 -0.000001 2.273650 0.159676 -10.136400 6.456720 -0.000001 -0.000000 0.556990 1.395290 -16.628600 12.994200 -0.242716 4.980390 -92.807000 7.927350 -70.429200 5.348090 -0.000007 -0.000001 -61.388200 -0.884638 3.211330 24.328600 0.000019 0.000005 11.896800 27.739400 -24.352500 22.291600 -0.000001 0.000005 3.169320 4.871980 9.932340 12.994500 -0.242716 -4.980390 94.131300 -7.918920 -62.333100 -5.348130 -0.000001 -0.000004 -70.690900 -69.439200 -74.630000 -24.328900 0.000322 -0.000009 -0.001271 -61.052700 -0.000533 -22.291500 -0.000108 -0.000004 53.970600 4.877860 9.810230 -2.192480 -6.469440 -0.000000 -172.777000 -2.556860 -3.285080 39.081100 -0.000007 -0.000012 -0.018356 0.098073 10.601000 40.985400 -0.000006 -0.000013 -4.474280 18.115600 -65.083800 11.754300 -0.000000 0.000003 -0.000992 0.182927 -9.156410 -2.192510 6.469440 -0.000001 177.413000 10.976400 -178.853000 -39.081100 -0.002282 -0.040193 0.004844 -0.011567 7.394670 -40.985400 0.000008 0.000006 -9.404770 2.960310 -65.182600 -11.754300 -0.000006 -0.000006 -0.009389 0.266681 -5.740070
0.000000 0.000000 0.000000 0.000000 0.000000 -0.000000 -1.694570 93.492000 -0.318669 88.841500 8.018560 -1.983470 15.735700 0.000005 -0.000001 66.240400 87.326700 -70.083100 8.984550 -0.406207 -0.000000 -2.921790 -1.795280 -7.732370 16.377300 -0.000001 -0.000001 2.267270 -0.199041 -9.505820 6.456720 -0.000001 -0.000000 0.239262 1.218280 -16.053100 12.994200 -0.242716 4.980390 -92.735300 7.726160 -70.435800 5.348090 -0.000007 -0.000001 -61.425800 -0.896329 3.010970 24.328600 0.000019 0.000005 12.092200 27.573200 -24.836400 22.291600 -0.000001 0.000005 3.265580 4.874710 9.878700 12.994500 -0.242716 -4.980390 94.046800 -7.672160 -62.079500 -5.348130 -0.000001 -0.000004 -67.000100 -69.795500 -76.448500 -24.328900 0.000322 -0.000009 -0.000972 -57.976100 -0.000471 -22.291500 -0.000108 -0.000004 50.645100 4.982800 7.676080 -2.192480 -6.469440 -0.000000 -172.791000 -2.637880 -3.095130 39.081100 -0.000007 -0.000012 -0.018809 0.102163 10.431700 40.985400 -0.000006 -0.000013 -4.566270 18.175600 -64.964400 11.754300 -0.000000 0.000003 -0.000925 0.181958 -9.195780 -2.192510 6.469440 -0.000001 177.376000 10.758000 -178.811000 -39.081100 -0.002282 -0.040193 0.004929 -0.012040 7.502130 -40.985400 0.000008 0.000006 -9.496340 2.807850 -65.265400 -11.754300 -0.000006 -0.000006 -0.009750 0.269426 -5.627840
0.000000 0.000000 0.000000 0.000000 0.000000 -0.000000 -1.717240 93.492900 -0.261081 88.866900 7.874360 -1.973420 15.735700 0.000005 -0.000001 66.752200 87.396900 -70.699100 8.984550 -0.406207 -0.000000 -3.028770 -1.682710 -7.939630 16.377300 -0.000001 -0.000001 2.240510 -0.595036 -8.880570 6.456720 -0.000001 -0.000000 -0.007882 0.961385 -15.510700 12.994200 -0.242716 4.980390 -92.639400 7.463710 -70.461200 5.348090 -0.000007 -0.000001 -61.629800 -1.098930 2.723920 24.328600 0.000019 0.000005 12.290200 27.416300 -25.320400 22.291600 -0.000001 0.000005 3.233970 4.873220 9.907960 12.994500 -0.242716 -4.980390 93.993900 -7.551870 -62.019900 -5.348130 -0.000001 -0.000004 -63.753400 -70.471600 -78.018600 -24.328900 0.000322 -0.000009 -0.000423 -53.932900 -0.000405 -22.291500 -0.000108 -0.000004 47.444200 5.066610 5.861670 -2.192480 -6.469440 -0.000000 -172.765000 -2.772190 -2.919980 39.081100 -0.000007 -0.000012 -0.019341 0.107276 10.219900 40.985400 -0.000006 -0.000013 -4.786400 18.252800 -64.758800 11.754300 -0.000000 0.000003 -0.000743 0.179314 -9.303220 -2.192510 6.469440 -0.000001 177.369000 10.450500 -178.824000 -39.081100 -0.002282 -0.040193 0.005034 -0.012708 7.580490 -40.985400 0.000008 0.000006 -9.493520 2.655550 -65.313400 -11.754300 -0.000006 -0.000006 -0.009519 0.267676 -5.699380
0.000000 0.000000 0.000000 0.000000 0.000000 -0.000000 -1.745230 93.492400 -0.223003 88.844200 7.636860 -1.942420 15.735700 0.000005 -0.000001 67.927900 87.474300 -71.934100 8.984550 -0.406207 -0.000000 -3.125720 -1.517010 -8.055300 16.377300 -0.000001 -0.000001 2.250710 -1.018080 -8.295540 6.456720 -0.000001 -0.000000 -0.300170 0.663974 -15.426800 12.994200 -0.242716 4.980390 -92.588300 7.314190 -70.451400 5.348090 -0.000007 -0.000001 -61.902700 -1.182080 2.326950 24.328600 0.000019 0.000005 12.384800 27.194300 -25.663500 22.291600 -0.000001 0.000005 3.331980 4.874440 9.883920 12.994500 -0.242716 -4.980390 93.909000 -7.416680 -62.105100 -5.348130 -0.000001 -0.000004 -62.228900 -71.425000 -80.786500 -24.328900 0.000322 -0.000009 -2.242470 -49.458800 -2.950140 -22.291500 -0.000108 -0.000004 44.732700 5.159480 3.705080 -2.192480 -6.469440 -0.000000 -172.702000 -3.080730 -2.794780 39.081100 -0.000007 -0.000012 -0.020837 0.116259 10.161000 40.985400 -0.000006 -0.000013 -4.954440 18.338200 -64.682400 11.754300 -0.000000 0.000003 -0.000784 0.179921 -9.278560 -2.192510 6.469440 -0.000001 177.409000 10.310600 -178.857000 -39.081100 -0.002282 -0.040193 0.004871 -0.011325 7.683440 -40.985400 0.000008 0.000006 -9.348410 2.717170 -65.358000 -11.754300 -0.000006 -0.000006 -0.009754 0.269457 -5.626580
